<svg xmlns="http://www.w3.org/2000/svg" version="1.1" xmlns:xlink="http://www.w3.org/1999/xlink" xmlns:svgjs="http://svgjs.dev/svgjs" width="1440" height="560" preserveAspectRatio="none" viewBox="0 0 1440 560"><g mask="url(&quot;#SvgjsMask1201&quot;)" fill="none"><path d="M1308.6951882212459 456.7603784265192L1456.9253584761575 396.8715021835245 1397.0364822331628 248.64133192861297 1248.8063119782512 308.5302081716077z" fill="rgba(28, 83, 142, 0.4)" class="triangle-float3"></path><path d="M408.32908076103115 77.58005396704556L404.3007745658335 154.4447150976353 521.611919359317 122.05484382513698z" fill="rgba(28, 83, 142, 0.4)" class="triangle-float2"></path><path d="M48.134,39.873C67.377,38.829,83.39,27.168,93.575,10.808C104.502,-6.743,110.909,-27.859,101.883,-46.459C91.76,-67.319,71.317,-83.222,48.134,-82.829C25.476,-82.445,8.432,-64.511,-2.546,-44.687C-13.117,-25.597,-17.948,-2.469,-6.73,16.248C4.241,34.553,26.824,41.029,48.134,39.873" fill="rgba(28, 83, 142, 0.4)" class="triangle-float3"></path><path d="M753.6597759732938 59.78447925837584L685.9576110328535 2.975617626949024 629.1487494014267 70.6777825673893 696.850914341867 127.48664419881612z" fill="rgba(28, 83, 142, 0.4)" class="triangle-float2"></path><path d="M1370.9155726297708 233.271493179624L1310.7509488288094 147.34750562189186 1284.9915850720388 293.43611698058544z" fill="rgba(28, 83, 142, 0.4)" class="triangle-float3"></path><path d="M302.155,349.963C336.504,352.137,370.916,335.389,387.468,305.213C403.506,275.974,396.454,239.909,377.618,212.389C361.092,188.244,331.411,181.007,302.155,180.568C271.866,180.113,238.164,184.038,222.661,210.062C206.912,236.498,218.495,268.728,233.697,295.482C249.139,322.659,270.959,347.989,302.155,349.963" fill="rgba(28, 83, 142, 0.4)" class="triangle-float3"></path><path d="M915.462,564.955C965.678,564.973,997.038,516.9,1022.094,473.382C1047.077,429.99,1071.194,379.694,1047.538,335.564C1022.975,289.741,967.452,274.818,915.462,274.46C862.703,274.097,805.109,287.215,780.199,333.724C756.16,378.607,783.256,429.357,808.964,473.305C834.31,516.634,865.264,564.937,915.462,564.955" fill="rgba(28, 83, 142, 0.4)" class="triangle-float1"></path><path d="M1284.2492251027347 461.1346425852216L1222.0095554351917 564.7188478011873 1325.5937606511575 626.9585174687303 1387.8334303187005 523.3743122527646z" fill="rgba(28, 83, 142, 0.4)" class="triangle-float2"></path><path d="M406.031757768344 39.84941571356414L338.4339313514787-60.36848328837981 238.21603234953471 7.2293431284855245 305.8138587664 107.44724213042947z" fill="rgba(28, 83, 142, 0.4)" class="triangle-float2"></path><path d="M1272.9631523761252 169.00190343745246L1327.5574626488456 40.38576842094835 1198.9413276323414-14.208541851771912 1144.347017359621 114.4075931647322z" fill="rgba(28, 83, 142, 0.4)" class="triangle-float1"></path><path d="M112.03411567203091 156.24984972065073L170.78506427920098 170.89810640201878 163.381974997668 75.44755515057967z" fill="rgba(28, 83, 142, 0.4)" class="triangle-float3"></path></g><defs><mask id="SvgjsMask1201"><rect width="1440" height="560" fill="#ffffff"></rect></mask><style>
                @keyframes float1 {
                    0%{transform: translate(0, 0)}
                    50%{transform: translate(-10px, 0)}
                    100%{transform: translate(0, 0)}
                }

                .triangle-float1 {
                    animation: float1 5s infinite;
                }

                @keyframes float2 {
                    0%{transform: translate(0, 0)}
                    50%{transform: translate(-5px, -5px)}
                    100%{transform: translate(0, 0)}
                }

                .triangle-float2 {
                    animation: float2 4s infinite;
                }

                @keyframes float3 {
                    0%{transform: translate(0, 0)}
                    50%{transform: translate(0, -10px)}
                    100%{transform: translate(0, 0)}
                }

                .triangle-float3 {
                    animation: float3 6s infinite;
                }
            </style></defs></svg>